<svg xmlns="http://www.w3.org/2000/svg" width="32" height="32" fill="none"><rect width="32" height="32" fill="#2563EB" rx="8"/><path fill="#EFF6FF" d="m16 12.222-3.778-3.778L16 4.667l3.778 3.777L16 12.222ZM23.556 12.222h-3.778V8.444h3.778v3.778Z"/><path fill="#EFF6FF" d="M23.556 19.778 27.333 16l-3.777-3.778L19.778 16l3.778 3.778ZM19.778 23.555h3.778v-3.777h-3.778v3.777ZM12.222 23.555 16 27.333l3.778-3.777L16 19.777l-3.778 3.777Z"/><path fill="#EFF6FF" d="M8.445 19.778v3.777h3.777v-3.777H8.445ZM8.445 12.222 12.222 16l-3.777 3.778L4.667 16l3.778-3.778Z"/><path fill="#EFF6FF" d="M8.445 12.222V8.444h3.777v3.778H8.445Z"/></svg>