<svg xmlns="http://www.w3.org/2000/svg" width="32" height="32" fill="none"><rect width="32" height="32" fill="#EFF6FF" rx="8"/><path fill="#2563EB" d="m16 12.222-3.778-3.778L16 4.667l3.778 3.777L16 12.222ZM23.555 12.222h-3.777V8.444h3.777v3.778ZM23.555 19.778 27.333 16l-3.777-3.778L19.777 16l3.777 3.778ZM19.778 23.556h3.777v-3.778h-3.777v3.778ZM12.222 23.556 16 27.333l3.778-3.777L16 19.778l-3.778 3.778Z"/><path fill="#2563EB" d="M8.444 19.778v3.778h3.778v-3.778H8.444ZM8.444 12.222 12.222 16l-3.778 3.778L4.667 16l3.777-3.778Z"/><path fill="#2563EB" d="M8.444 12.222V8.444h3.778v3.778H8.444Z"/></svg>