<svg width="32" height="32" viewBox="0 0 32 32" fill="none" xmlns="http://www.w3.org/2000/svg">
<rect width="32" height="32" rx="8" fill="#2563EB"/>
<path d="M16.0001 12.2222L12.2223 8.44443L16.0001 4.66666L19.7779 8.44443L16.0001 12.2222Z" fill="#EFF6FF"/>
<path d="M23.5556 12.2222H19.7779V8.44443H23.5556V12.2222Z" fill="#EFF6FF"/>
<path d="M23.5556 19.7778L27.3334 16L23.5556 12.2222L19.7779 16L23.5556 19.7778Z" fill="#EFF6FF"/>
<path d="M19.7779 23.5555H23.5556V19.7778H19.7779V23.5555Z" fill="#EFF6FF"/>
<path d="M12.2223 23.5555L16.0001 27.3333L19.7779 23.5555L16.0001 19.7778L12.2223 23.5555Z" fill="#EFF6FF"/>
<path d="M8.44453 19.7778V23.5555H12.2223V19.7778H8.44453Z" fill="#EFF6FF"/>
<path d="M8.44453 12.2222L12.2223 16L8.44453 19.7778L4.66675 16L8.44453 12.2222Z" fill="#EFF6FF"/>
<path d="M8.44453 12.2222V8.44443H12.2223V12.2222H8.44453Z" fill="#EFF6FF"/>
</svg>
