<svg width="143" height="32" viewBox="0 0 143 32" fill="none" xmlns="http://www.w3.org/2000/svg">
<rect width="32" height="32" rx="8" fill="#2563EB"/>
<path d="M16.0001 12.2222L12.2223 8.44443L16.0001 4.66666L19.7779 8.44443L16.0001 12.2222Z" fill="#EFF6FF"/>
<path d="M23.5556 12.2222H19.7779V8.44443H23.5556V12.2222Z" fill="#EFF6FF"/>
<path d="M23.5556 19.7778L27.3334 16L23.5556 12.2222L19.7779 16L23.5556 19.7778Z" fill="#EFF6FF"/>
<path d="M19.7779 23.5555H23.5556V19.7778H19.7779V23.5555Z" fill="#EFF6FF"/>
<path d="M12.2223 23.5555L16.0001 27.3333L19.7779 23.5555L16.0001 19.7778L12.2223 23.5555Z" fill="#EFF6FF"/>
<path d="M8.44453 19.7778V23.5555H12.2223V19.7778H8.44453Z" fill="#EFF6FF"/>
<path d="M8.44453 12.2222L12.2223 16L8.44453 19.7778L4.66675 16L8.44453 12.2222Z" fill="#EFF6FF"/>
<path d="M8.44453 12.2222V8.44443H12.2223V12.2222H8.44453Z" fill="#EFF6FF"/>
<path d="M42 24.5994V7.1449H48.9886C50.2727 7.1449 51.3438 7.33524 52.2017 7.71592C53.0597 8.0966 53.7045 8.62501 54.1364 9.30115C54.5682 9.9716 54.7841 10.7443 54.7841 11.6193C54.7841 12.3011 54.6477 12.9006 54.375 13.4176C54.1023 13.929 53.7273 14.3494 53.25 14.679C52.7784 15.0029 52.2386 15.233 51.6307 15.3693V15.5398C52.2955 15.5682 52.9176 15.7557 53.4972 16.1023C54.0824 16.4489 54.5568 16.9347 54.9205 17.5597C55.2841 18.179 55.4659 18.9176 55.4659 19.7756C55.4659 20.7017 55.2358 21.5284 54.7756 22.2557C54.321 22.9773 53.6477 23.5483 52.7557 23.9688C51.8636 24.3892 50.7642 24.5994 49.4574 24.5994H42ZM45.6903 21.5824H48.6989C49.7273 21.5824 50.4773 21.3864 50.9489 20.9943C51.4205 20.5966 51.6563 20.0682 51.6563 19.4091C51.6563 18.9261 51.5398 18.5 51.3068 18.1307C51.0739 17.7614 50.7415 17.4716 50.3097 17.2614C49.8835 17.0511 49.375 16.946 48.7841 16.946H45.6903V21.5824ZM45.6903 14.4489H48.4261C48.9318 14.4489 49.3807 14.3608 49.7727 14.1847C50.1705 14.0029 50.483 13.7472 50.7102 13.4176C50.9432 13.0881 51.0597 12.6932 51.0597 12.233C51.0597 11.6023 50.8352 11.0938 50.3864 10.7074C49.9432 10.321 49.3125 10.1279 48.4943 10.1279H45.6903V14.4489Z" fill="#1F242E"/>
<path d="M60.282 24.8466C59.4467 24.8466 58.7024 24.7017 58.049 24.4119C57.3956 24.1165 56.8786 23.6818 56.4979 23.108C56.1229 22.5284 55.9354 21.8068 55.9354 20.9432C55.9354 20.2159 56.0689 19.6051 56.3359 19.1108C56.603 18.6165 56.9666 18.2188 57.4268 17.9176C57.8871 17.6165 58.4098 17.3892 58.995 17.2358C59.5859 17.0824 60.2053 16.9744 60.853 16.9119C61.6143 16.8324 62.228 16.7585 62.6939 16.6904C63.1598 16.6165 63.4979 16.5085 63.7081 16.3665C63.9183 16.2244 64.0234 16.0142 64.0234 15.7358V15.6847C64.0234 15.1449 63.853 14.7273 63.5121 14.4318C63.1768 14.1364 62.6996 13.9886 62.0803 13.9886C61.4268 13.9886 60.907 14.1335 60.5206 14.4233C60.1342 14.7074 59.8786 15.0654 59.7536 15.4972L56.3956 15.2244C56.5661 14.429 56.9013 13.7415 57.4013 13.1619C57.9013 12.5767 58.5462 12.1279 59.3359 11.8154C60.1314 11.4972 61.0518 11.3381 62.0973 11.3381C62.8246 11.3381 63.5206 11.4233 64.1854 11.5938C64.8558 11.7642 65.4496 12.0284 65.9666 12.3864C66.4893 12.7443 66.9013 13.2046 67.2024 13.7671C67.5036 14.3239 67.6541 14.9915 67.6541 15.7699V24.5994H64.2109V22.7841H64.1087C63.8984 23.1932 63.6172 23.554 63.2649 23.8665C62.9126 24.1733 62.4893 24.4148 61.995 24.5909C61.5007 24.7614 60.9297 24.8466 60.282 24.8466ZM61.3217 22.3409C61.8558 22.3409 62.3274 22.2358 62.7365 22.0256C63.1456 21.8097 63.4666 21.5199 63.6996 21.1563C63.9325 20.7926 64.049 20.3807 64.049 19.9205V18.5313C63.9354 18.6051 63.7791 18.6733 63.5803 18.7358C63.3871 18.7926 63.1683 18.8466 62.924 18.8977C62.6797 18.9432 62.4354 18.9858 62.1911 19.0256C61.9467 19.0597 61.7251 19.0909 61.5263 19.1193C61.1001 19.1818 60.728 19.2813 60.4098 19.4176C60.0916 19.554 59.8445 19.7386 59.6683 19.9716C59.4922 20.1989 59.4041 20.483 59.4041 20.8239C59.4041 21.3182 59.5831 21.696 59.9411 21.9574C60.3047 22.2131 60.7649 22.3409 61.3217 22.3409Z" fill="#1F242E"/>
<path d="M72.8516 17.0313V24.5994H69.2209V11.5085H72.6811V13.8182H72.8345C73.1243 13.0568 73.6101 12.4546 74.2919 12.0114C74.9737 11.5625 75.8004 11.3381 76.772 11.3381C77.6811 11.3381 78.4737 11.5369 79.1499 11.9347C79.826 12.3324 80.3516 12.9006 80.7266 13.6392C81.1016 14.3722 81.2891 15.2472 81.2891 16.2642V24.5994H77.6584V16.9119C77.6641 16.1108 77.4595 15.4858 77.0447 15.0369C76.63 14.5824 76.0589 14.3551 75.3317 14.3551C74.843 14.3551 74.4112 14.4602 74.0362 14.6705C73.6669 14.8807 73.3771 15.1875 73.1669 15.5909C72.9624 15.9886 72.8572 16.4688 72.8516 17.0313Z" fill="#1F242E"/>
<path d="M86.5312 17.0313V24.5994H82.9006V7.1449H86.429V13.8182H86.5824C86.8778 13.0455 87.3551 12.4404 88.0142 12.0029C88.6733 11.5597 89.5 11.3381 90.4943 11.3381C91.4034 11.3381 92.196 11.5369 92.8722 11.9347C93.554 12.3267 94.0824 12.8921 94.4574 13.6307C94.8381 14.3636 95.0256 15.2415 95.0199 16.2642V24.5994H91.3892V16.9119C91.3949 16.1051 91.1903 15.4773 90.7756 15.0284C90.3665 14.5796 89.7926 14.3551 89.054 14.3551C88.5597 14.3551 88.1222 14.4602 87.7415 14.6705C87.3665 14.8807 87.071 15.1875 86.8551 15.5909C86.6449 15.9886 86.5369 16.4688 86.5312 17.0313Z" fill="#1F242E"/>
<path d="M100.36 24.8466C99.5249 24.8466 98.7805 24.7017 98.1271 24.4119C97.4737 24.1165 96.9567 23.6818 96.576 23.108C96.201 22.5284 96.0135 21.8068 96.0135 20.9432C96.0135 20.2159 96.147 19.6051 96.4141 19.1108C96.6811 18.6165 97.0447 18.2188 97.505 17.9176C97.9652 17.6165 98.4879 17.3892 99.0732 17.2358C99.6641 17.0824 100.283 16.9744 100.931 16.9119C101.692 16.8324 102.306 16.7585 102.772 16.6904C103.238 16.6165 103.576 16.5085 103.786 16.3665C103.996 16.2244 104.102 16.0142 104.102 15.7358V15.6847C104.102 15.1449 103.931 14.7273 103.59 14.4318C103.255 14.1364 102.778 13.9886 102.158 13.9886C101.505 13.9886 100.985 14.1335 100.599 14.4233C100.212 14.7074 99.9567 15.0654 99.8317 15.4972L96.4737 15.2244C96.6442 14.429 96.9794 13.7415 97.4794 13.1619C97.9794 12.5767 98.6243 12.1279 99.4141 11.8154C100.21 11.4972 101.13 11.3381 102.175 11.3381C102.903 11.3381 103.599 11.4233 104.263 11.5938C104.934 11.7642 105.528 12.0284 106.045 12.3864C106.567 12.7443 106.979 13.2046 107.281 13.7671C107.582 14.3239 107.732 14.9915 107.732 15.7699V24.5994H104.289V22.7841H104.187C103.977 23.1932 103.695 23.554 103.343 23.8665C102.991 24.1733 102.567 24.4148 102.073 24.5909C101.579 24.7614 101.008 24.8466 100.36 24.8466ZM101.4 22.3409C101.934 22.3409 102.406 22.2358 102.815 22.0256C103.224 21.8097 103.545 21.5199 103.778 21.1563C104.011 20.7926 104.127 20.3807 104.127 19.9205V18.5313C104.013 18.6051 103.857 18.6733 103.658 18.7358C103.465 18.7926 103.246 18.8466 103.002 18.8977C102.758 18.9432 102.513 18.9858 102.269 19.0256C102.025 19.0597 101.803 19.0909 101.604 19.1193C101.178 19.1818 100.806 19.2813 100.488 19.4176C100.17 19.554 99.9226 19.7386 99.7464 19.9716C99.5703 20.1989 99.4822 20.483 99.4822 20.8239C99.4822 21.3182 99.6612 21.696 100.019 21.9574C100.383 22.2131 100.843 22.3409 101.4 22.3409Z" fill="#1F242E"/>
<path d="M116.262 11.5085V14.2358H108.379V11.5085H116.262ZM110.168 8.37217H113.799V20.5767C113.799 20.9119 113.85 21.1733 113.952 21.3608C114.055 21.5426 114.197 21.6705 114.379 21.7443C114.566 21.8182 114.782 21.8551 115.026 21.8551C115.197 21.8551 115.367 21.8409 115.538 21.8125C115.708 21.7784 115.839 21.7529 115.93 21.7358L116.501 24.4375C116.319 24.4943 116.063 24.5597 115.734 24.6335C115.404 24.7131 115.004 24.7614 114.532 24.7784C113.657 24.8125 112.89 24.696 112.231 24.429C111.577 24.1619 111.069 23.7472 110.705 23.1847C110.342 22.6222 110.163 21.9119 110.168 21.054V8.37217Z" fill="#1F242E"/>
<path d="M123.202 24.8551C121.856 24.8551 120.697 24.5824 119.725 24.0369C118.759 23.4858 118.015 22.7074 117.492 21.7017C116.969 20.6904 116.708 19.4943 116.708 18.1136C116.708 16.7671 116.969 15.5852 117.492 14.5682C118.015 13.5511 118.751 12.7585 119.7 12.1904C120.654 11.6222 121.773 11.3381 123.058 11.3381C123.921 11.3381 124.725 11.4773 125.469 11.7557C126.219 12.0284 126.873 12.4404 127.43 12.9915C127.992 13.5426 128.43 14.2358 128.742 15.071C129.055 15.9006 129.211 16.8722 129.211 17.9858V18.983H118.157V16.733H125.793C125.793 16.2102 125.68 15.7472 125.452 15.3438C125.225 14.9404 124.91 14.625 124.506 14.3977C124.109 14.1648 123.646 14.0483 123.117 14.0483C122.566 14.0483 122.077 14.1761 121.651 14.4318C121.231 14.6818 120.901 15.0199 120.663 15.446C120.424 15.8665 120.302 16.3352 120.296 16.8523V18.9915C120.296 19.6392 120.415 20.1989 120.654 20.6705C120.898 21.1421 121.242 21.5057 121.685 21.7614C122.129 22.0171 122.654 22.1449 123.262 22.1449C123.665 22.1449 124.035 22.0881 124.37 21.9744C124.705 21.8608 124.992 21.6904 125.231 21.4631C125.469 21.2358 125.651 20.9574 125.776 20.6279L129.134 20.8494C128.964 21.6563 128.614 22.3608 128.086 22.9631C127.563 23.5597 126.887 24.0256 126.058 24.3608C125.234 24.6904 124.282 24.8551 123.202 24.8551Z" fill="#1F242E"/>
<path d="M133.961 17.0313V24.5994H130.33V11.5085H133.79V13.8182H133.944C134.234 13.0568 134.719 12.4546 135.401 12.0114C136.083 11.5625 136.91 11.3381 137.881 11.3381C138.79 11.3381 139.583 11.5369 140.259 11.9347C140.935 12.3324 141.461 12.9006 141.836 13.6392C142.211 14.3722 142.398 15.2472 142.398 16.2642V24.5994H138.768V16.9119C138.773 16.1108 138.569 15.4858 138.154 15.0369C137.739 14.5824 137.168 14.3551 136.441 14.3551C135.952 14.3551 135.521 14.4602 135.146 14.6705C134.776 14.8807 134.487 15.1875 134.276 15.5909C134.072 15.9886 133.967 16.4688 133.961 17.0313Z" fill="#1F242E"/>
</svg>
